<?xml version="1.0" encoding="iso-8859-1"?>
<!-- Uploaded to: SVG Repo, www.svgrepo.com, Generator: SVG Repo Mixer Tools -->
<svg version="1.1" id="Layer_1" xmlns="http://www.w3.org/2000/svg" xmlns:xlink="http://www.w3.org/1999/xlink" 
	 viewBox="0 0 512 512" xml:space="preserve">
<circle style="fill:#45B39C;" cx="256" cy="256" r="256"/>
<path style="opacity:0.1;enable-background:new    ;" d="M512,256c0-11.648-0.853-23.093-2.357-34.331L400.613,112.619l-1.387-1.387
	c-1.493-1.227-3.413-1.92-5.493-1.92H118.267c-4.96,0-8.96,4-8.96,8.96v202.667c0,2.187,0.8,4.16,2.133,5.707l29.493,29.493H130
	c-1.173,0-2.133,0.96-2.133,2.133v13.813h-18.56v30.56l106.123,106.123C228.645,510.875,242.192,512,256,512
	C397.387,512,512,397.387,512,256z"/>
<rect x="109.333" y="372.085" style="fill:#D5D6DB;" width="293.333" height="30.581"/>
<rect x="109.333" y="372.085" style="fill:#EBF0F3;" width="293.333" height="19.824"/>
<rect x="127.861" y="360.907" style="fill:#64798A;" width="61.589" height="11.163"/>
<path style="fill:#FFFFFF;" d="M189.456,358.299c0-1.189-0.96-2.155-2.139-2.155H130c-1.179,0-2.139,0.965-2.139,2.155v2.629h61.589
	v-2.629H189.456z"/>
<path style="fill:#FCD462;" d="M393.749,109.333H118.251c-4.928,0-8.917,3.995-8.917,8.917v202.677c0,4.928,3.995,8.917,8.917,8.917
	h275.493c4.928,0,8.917-3.995,8.917-8.917V118.251C402.667,113.328,398.672,109.333,393.749,109.333z"/>
<rect x="125.333" y="125.333" style="fill:#F6C358;" width="261.333" height="188.533"/>
<rect x="130.667" y="130.667" style="fill:#64798A;" width="250.667" height="177.867"/>
<g>
	<path style="fill:#FFFFFF;" d="M184.555,196.251v-11.659h37.52v9.467l-12.539,14.288c4.912,0.816,8.709,2.88,11.397,6.181
		s4.037,7.115,4.037,11.435c0,6.432-2.176,11.472-6.533,15.125c-4.352,3.648-9.92,5.477-16.704,5.477
		c-6.779,0-13.648-2.395-20.597-7.195l5.611-10.869c5.787,4.096,10.96,6.139,15.515,6.139c2.752,0,5.008-0.672,6.795-2.021
		c1.781-1.344,2.672-3.285,2.672-5.829c0-2.544-1.019-4.555-3.067-6.048c-2.048-1.488-4.88-2.235-8.507-2.235
		c-1.925,0-4.645,0.555-8.149,1.664v-10.08l11.744-13.856h-19.195V196.251z"/>
	<path style="fill:#FFFFFF;" d="M249.339,236.315v-15.776H234v-10.789h15.339v-15.776h12.101v15.776h15.344v10.789H261.44v15.776
		H249.339z"/>
	<path style="fill:#FFFFFF;" d="M311.803,208.48c1.547-2.187,2.32-4.309,2.32-6.352s-0.672-3.755-2.016-5.131
		c-1.344-1.371-3.067-2.059-5.173-2.059c-3.856,0-7.509,2.747-10.96,8.24l-10.96-6.491c2.864-4.437,6.005-7.803,9.429-10.08
		c3.419-2.283,7.771-3.424,13.061-3.424c5.285,0,9.931,1.68,13.936,5.04c4,3.365,6.005,7.931,6.005,13.717
		c0,3.157-0.805,6.181-2.411,9.072c-1.611,2.896-4.571,6.592-8.901,11.093l-11.04,11.483h24.192v12.272h-43.221v-10.165
		l17.973-18.411C307.664,213.611,310.256,210.672,311.803,208.48z"/>
</g>
</svg>