<svg width="39" height="39" viewBox="0 0 39 39" fill="none" xmlns="http://www.w3.org/2000/svg">
<path d="M19.5 35.3334C22.6315 35.3334 25.6927 34.4048 28.2965 32.665C30.9003 30.9252 32.9297 28.4524 34.1281 25.5592C35.3264 22.6661 35.64 19.4825 35.0291 16.4112C34.4181 13.3398 32.9101 10.5186 30.6958 8.30423C28.4815 6.0899 25.6603 4.58192 22.5889 3.97099C19.5175 3.36006 16.334 3.67361 13.4408 4.872C10.5476 6.07038 8.07481 8.09978 6.33502 10.7036C4.59523 13.3073 3.66663 16.3686 3.66663 19.5001C3.66663 23.6993 5.33478 27.7266 8.3041 30.6959C9.77436 32.1662 11.5198 33.3325 13.4408 34.1282C15.3618 34.9239 17.4207 35.3334 19.5 35.3334ZM19.5 32.1668C19.0302 32.1668 18.571 32.0275 18.1805 31.7665C17.7899 31.5055 17.4855 31.1346 17.3057 30.7006C17.126 30.2666 17.079 29.7891 17.1706 29.3284C17.2622 28.8677 17.4884 28.4445 17.8206 28.1124C18.1527 27.7802 18.5759 27.554 19.0366 27.4624C19.4973 27.3707 19.9749 27.4178 20.4088 27.5975C20.8428 27.7773 21.2137 28.0817 21.4747 28.4723C21.7357 28.8628 21.875 29.322 21.875 29.7918C21.875 30.4216 21.6247 31.0257 21.1793 31.4711C20.7339 31.9165 20.1298 32.1668 19.5 32.1668ZM13.1666 14.7406C13.1433 13.5241 13.4792 12.3278 14.1323 11.3013C14.7853 10.2748 15.7266 9.46363 16.8384 8.96934C17.8242 8.52905 18.9051 8.3441 19.9812 8.43154C21.0573 8.51898 22.0941 8.876 22.996 9.46967C23.8275 10.0202 24.5173 10.7594 25.0092 11.627C25.5011 12.4946 25.7811 13.4661 25.8264 14.4624C25.8718 15.4587 25.6813 16.4516 25.2703 17.3603C24.8593 18.269 24.2396 19.0678 23.4615 19.6917C22.3703 20.5326 21.5854 21.7085 21.2274 23.0388C21.1287 23.447 20.8719 23.7993 20.5135 24.0181C20.1551 24.2369 19.7245 24.3044 19.3163 24.2058C18.9081 24.1071 18.5559 23.8503 18.337 23.4919C18.1182 23.1335 18.0507 22.7028 18.1494 22.2947C18.6648 20.2836 19.8345 18.5011 21.4744 17.228C21.8641 16.9162 22.1747 16.5168 22.3807 16.0622C22.5867 15.6076 22.6823 15.1107 22.6598 14.6121C22.6373 14.1135 22.4972 13.6273 22.251 13.1932C22.0048 12.759 21.6595 12.3892 21.2432 12.1138C20.7768 11.8086 20.24 11.6279 19.684 11.5891C19.128 11.5503 18.5713 11.6547 18.067 11.8922C17.5324 12.1481 17.0833 12.5535 16.7742 13.0593C16.4651 13.5651 16.3092 14.1496 16.3254 14.7422C16.2981 15.1418 16.1203 15.5163 15.8279 15.79C15.5356 16.0638 15.1503 16.2166 14.7497 16.2176C14.3491 16.2186 13.9631 16.0678 13.6693 15.7955C13.3755 15.5231 13.1959 15.1496 13.1666 14.7501V14.7406Z" fill="white"/>
</svg>
