<svg width="39" height="39" viewBox="0 0 39 39" fill="none" xmlns="http://www.w3.org/2000/svg">
<path d="M19.5 37.375C18.6602 37.375 17.8547 37.0326 17.2609 36.4231C16.667 35.8136 16.3334 34.987 16.3334 34.125H22.6667C22.6667 34.987 22.3331 35.8136 21.7392 36.4231C21.1453 37.0326 20.3399 37.375 19.5 37.375ZM32.1667 9.75C32.1667 9.10721 31.981 8.47886 31.633 7.9444C31.2851 7.40994 30.7905 6.99338 30.2119 6.74739C29.6332 6.50141 28.9965 6.43705 28.3822 6.56245C27.768 6.68785 27.2037 6.99738 26.7609 7.4519C26.318 7.90642 26.0164 8.48552 25.8942 9.11596C25.772 9.74639 25.8347 10.3999 26.0744 10.9937C26.3141 11.5876 26.72 12.0952 27.2407 12.4523C27.7615 12.8094 28.3737 13 29 13C29.8399 13 30.6453 12.6576 31.2392 12.0481C31.8331 11.4386 32.1667 10.612 32.1667 9.75ZM33.2861 28.1011L30.5834 25.3273V16.25H27.4167V26C27.4168 26.4309 27.5837 26.8442 27.8806 27.1489L28.3445 27.625H10.6555L11.1194 27.1489C11.4164 26.8442 11.5833 26.4309 11.5834 26V16.25C11.5787 15.0562 11.8314 13.8761 12.3235 12.7944C12.8155 11.7126 13.5346 10.756 14.4293 9.99309C15.324 9.23017 16.3721 8.67987 17.4984 8.38162C18.6247 8.08337 19.8014 8.04457 20.944 8.268L23.4584 5.6875C23.3756 5.62372 23.2864 5.56924 23.1924 5.525C22.5074 5.28352 21.801 5.11154 21.0834 5.0115V3.25C21.0834 2.81902 20.9165 2.4057 20.6196 2.10095C20.3227 1.7962 19.92 1.625 19.5 1.625C19.0801 1.625 18.6774 1.7962 18.3804 2.10095C18.0835 2.4057 17.9167 2.81902 17.9167 3.25V5.005C15.2811 5.39543 12.8705 6.7467 11.1261 8.81161C9.38159 10.8765 8.41982 13.517 8.4167 16.25V25.3273L5.71395 28.1011C5.49258 28.3284 5.34184 28.6179 5.28077 28.9331C5.21971 29.2482 5.25106 29.5749 5.37087 29.8718C5.49068 30.1687 5.69357 30.4225 5.95389 30.601C6.2142 30.7796 6.52026 30.8749 6.83336 30.875H32.1667C32.4798 30.8749 32.7859 30.7796 33.0462 30.601C33.3065 30.4225 33.5094 30.1687 33.6292 29.8718C33.749 29.5749 33.7803 29.2482 33.7193 28.9331C33.6582 28.6179 33.5075 28.3284 33.2861 28.1011Z" fill="white"/>
</svg>
