<svg width="33" height="33" viewBox="0 0 33 33" fill="none" xmlns="http://www.w3.org/2000/svg">
<path fill-rule="evenodd" clip-rule="evenodd" d="M9.92732 14.18C11.1194 10.9907 12.7574 9.88135 15.451 9.88135C18.1446 9.88135 19.7826 10.9907 20.9747 14.18C20.9971 14.2407 21.015 14.3032 21.028 14.3667L22.5724 21.7227C22.654 22.1011 22.5647 22.4971 22.3292 22.8001C22.0938 23.1033 21.7374 23.2811 21.3595 23.284H18.2564C18.3267 24.0985 18.065 24.9064 17.5335 25.5157C17.0019 26.1251 16.248 26.4815 15.451 26.5C14.6535 26.4815 13.8992 26.1248 13.3676 25.5148C12.8359 24.9049 12.5745 24.0963 12.6456 23.2813H9.54252C9.16467 23.2784 8.80831 23.1007 8.57284 22.7975C8.33738 22.4944 8.24799 22.0984 8.32962 21.72L9.87402 14.3667C9.88707 14.3032 9.90488 14.2407 9.92732 14.18Z" stroke="white" stroke-width="2" stroke-linejoin="round"/>
<path d="M12.6455 22.2813C12.0932 22.2813 11.6455 22.729 11.6455 23.2813C11.6455 23.8335 12.0932 24.2813 12.6455 24.2813V22.2813ZM18.2563 24.2813C18.8086 24.2813 19.2563 23.8335 19.2563 23.2813C19.2563 22.729 18.8086 22.2813 18.2563 22.2813V24.2813ZM13.3384 6.83325C12.7861 6.83325 12.3384 7.28097 12.3384 7.83325C12.3384 8.38553 12.7861 8.83325 13.3384 8.83325V6.83325ZM17.5634 8.83325C18.1156 8.83325 18.5634 8.38553 18.5634 7.83325C18.5634 7.28097 18.1156 6.83325 17.5634 6.83325V8.83325ZM12.6455 24.2813H18.2563V22.2813H12.6455V24.2813ZM13.3384 8.83325H17.5634V6.83325H13.3384V8.83325Z" fill="white"/>
</svg>
