<svg width="39" height="39" viewBox="0 0 39 39" fill="none" xmlns="http://www.w3.org/2000/svg">
<path opacity="0.4" d="M19.6911 20.7349C19.5802 20.719 19.4377 20.719 19.3111 20.7349C16.5244 20.6399 14.3077 18.3599 14.3077 15.5573C14.3077 12.6915 16.6194 10.364 19.5011 10.364C22.3669 10.364 24.6944 12.6915 24.6944 15.5573C24.6786 18.3599 22.4777 20.6399 19.6911 20.7349Z" stroke="white" stroke-width="3.75" stroke-linecap="round" stroke-linejoin="round"/>
<path opacity="0.34" d="M30.1714 31.1852C27.353 33.766 23.6164 35.3335 19.4997 35.3335C15.383 35.3335 11.6463 33.766 8.828 31.1852C8.98634 29.6969 9.93634 28.2402 11.6305 27.1002C15.9688 24.2185 23.0622 24.2185 27.3689 27.1002C29.0631 28.2402 30.013 29.6969 30.1714 31.1852Z" stroke="white" stroke-width="3.75" stroke-linecap="round" stroke-linejoin="round"/>
<path d="M19.5 35.3334C28.2444 35.3334 35.3333 28.2445 35.3333 19.5001C35.3333 10.7556 28.2444 3.66675 19.5 3.66675C10.7554 3.66675 3.66663 10.7556 3.66663 19.5001C3.66663 28.2445 10.7554 35.3334 19.5 35.3334Z" stroke="white" stroke-width="3.75" stroke-linecap="round" stroke-linejoin="round"/>
</svg>
