<svg width="32" height="32" viewBox="0 0 32 32" fill="none" xmlns="http://www.w3.org/2000/svg">
<g clip-path="url(#clip0_2025_93)">
<path fill-rule="evenodd" clip-rule="evenodd" d="M16 16C12.4704 16 9.6 13.1296 9.6 9.6C9.6 6.0704 12.4704 3.2 16 3.2C19.5296 3.2 22.4 6.0704 22.4 9.6C22.4 13.1296 19.5296 16 16 16ZM22.0128 17.0768C24.1984 15.3184 25.6 12.624 25.6 9.6C25.6 4.2976 21.3024 0 16 0C10.6976 0 6.4 4.2976 6.4 9.6C6.4 12.624 7.80161 15.3184 9.98721 17.0768C4.13281 19.2768 0 24.712 0 32H3.2C3.2 24 8.9424 19.2 16 19.2C23.0576 19.2 28.8 24 28.8 32H32C32 24.712 27.8672 19.2768 22.0128 17.0768Z" fill="white"/>
</g>
<defs>
<clipPath id="clip0_2025_93">
<rect width="32" height="32" fill="white"/>
</clipPath>
</defs>
</svg>
